<svg xmlns="http://www.w3.org/2000/svg" viewBox="0 0 512 512">
  <!-- Background circle with subtle gradient -->
  <defs>
    <linearGradient id="bgGradient" x1="0%" y1="0%" x2="100%" y2="100%">
      <stop offset="0%" stop-color="#f9fdfb" />
      <stop offset="100%" stop-color="#ebf7f0" />
    </linearGradient>
    <linearGradient id="magnifyingGlassGradient" x1="0%" y1="0%" x2="100%" y2="100%">
      <stop offset="0%" stop-color="#00a854" />
      <stop offset="100%" stop-color="#008c46" />
    </linearGradient>
    <filter id="shadow" x="-20%" y="-20%" width="140%" height="140%">
      <feDropShadow dx="2" dy="4" stdDeviation="6" flood-opacity="0.15" />
    </filter>
  </defs>
  
  <!-- Main background -->
  <circle cx="256" cy="256" r="240" fill="url(#bgGradient)" />
  
  <!-- Magnifying glass -->
  <g filter="url(#shadow)">
    <path d="M280 175a85 85 0 1 0-170 0 85 85 0 0 0 170 0z" stroke="url(#magnifyingGlassGradient)" stroke-width="18" fill="white" />
    <line x1="245" y1="235" x2="320" y2="310" stroke="url(#magnifyingGlassGradient)" stroke-width="22" stroke-linecap="round" />
  </g>
  
  <!-- No results visual elements -->
  <g>
    <!-- Document outlines -->
    <rect x="220" y="140" width="50" height="70" rx="4" fill="white" stroke="#c9e9d8" stroke-width="2" />
    <rect x="210" y="165" width="50" height="70" rx="4" fill="white" stroke="#c9e9d8" stroke-width="2" />
    <rect x="200" y="180" width="50" height="70" rx="4" fill="white" stroke="#c9e9d8" stroke-width="2" />
    
    <!-- X mark on documents -->
    <line x1="215" y1="205" x2="235" y2="225" stroke="#ff6b6b" stroke-width="3" stroke-linecap="round" />
    <line x1="235" y1="205" x2="215" y2="225" stroke="#ff6b6b" stroke-width="3" stroke-linecap="round" />
  </g>
  
  <!-- Decorative elements -->
  <g opacity="0.7">
    <circle cx="330" cy="150" r="8" fill="#00a854" />
    <circle cx="350" cy="190" r="5" fill="#00a854" />
    <circle cx="320" cy="210" r="4" fill="#00a854" />
    <circle cx="365" cy="230" r="6" fill="#00a854" />
  </g>
  
  <!-- Subtle empty state pattern -->
  <g opacity="0.3">
    <circle cx="150" cy="320" r="40" fill="none" stroke="#00a854" stroke-width="2" stroke-dasharray="6,4" />
    <circle cx="350" cy="300" r="30" fill="none" stroke="#00a854" stroke-width="2" stroke-dasharray="6,4" />
  </g>
</svg>